<svg xmlns="http://www.w3.org/2000/svg" viewBox="0 0 64 64" id="food">
  <path d="M52.229 16.398a2.381 2.381 0 1 0-.222-4.758l-.892.041-.041-.892a2.381 2.381 0 1 0-4.758.222l.263 5.65 5.65-.263zm1.101 7.014-.032.688-.688-.032a1.836 1.836 0 1 0-.17 3.668l4.355.202.202-4.355a1.835 1.835 0 1 0-3.667-.171z"></path>
  <circle cx="44.5" cy="4.188" r="1.25"></circle>
  <circle cx="57" cy="7.911" r="1.25"></circle>
  <circle cx="45.75" cy="21.661" r="1.25"></circle>
  <path d="m11.771 16.398 5.65.263.263-5.65a2.382 2.382 0 0 0-4.758-.222l-.041.892-.892-.041a2.38 2.38 0 1 0-.222 4.758zm-4.769 7.184.202 4.355 4.355-.202a1.836 1.836 0 1 0-.17-3.668l-.688.032-.032-.688a1.836 1.836 0 1 0-3.667.171z"></path>
  <circle cx="19.5" cy="4.188" r="1.25"></circle>
  <circle cx="7" cy="7.911" r="1.25"></circle>
  <circle cx="18.25" cy="21.661" r="1.25"></circle>
  <path d="M32 27.313c2.412 0 4.375-1.963 4.375-4.375S34.412 18.563 32 18.563s-4.375 1.963-4.375 4.375 1.963 4.375 4.375 4.375zm0-7.5c1.723 0 3.125 1.402 3.125 3.125S33.723 26.063 32 26.063s-3.125-1.402-3.125-3.125 1.402-3.125 3.125-3.125zM3.899 53.563c.32 4.189 3.831 7.5 8.101 7.5h40c4.27 0 7.781-3.311 8.101-7.5H3.899z"></path>
  <path d="M6.383 52.313h5.003c.218-7.089 4.122-13.649 10.301-17.232a.625.625 0 0 1 .627 1.081c-5.795 3.359-9.461 9.505-9.678 16.15h44.982c-.333-13.842-11.696-25-25.617-25S6.716 38.47 6.383 52.313zm25.617-20c2.673 0 5.275.506 7.735 1.505a.625.625 0 1 1-.47 1.158A19.217 19.217 0 0 0 32 33.563a.625.625 0 0 1 0-1.25z"></path>
</svg>
